<svg xmlns="http://www.w3.org/2000/svg" width="37.499" height="37.5" viewBox="0 0 37.499 37.5">
  <g id="instagram" transform="translate(0 0)">
    <circle id="Ellipse_2" data-name="Ellipse 2" cx="4.028" cy="4.028" r="4.028" transform="translate(14.727 14.638)" fill="#fdc1cd"/>
    <path id="Path_14" data-name="Path 14" d="M2409.569,3081.806h-9.34a4.8,4.8,0,0,0-4.781,4.781v9.953a4.8,4.8,0,0,0,4.781,4.781h9.34a4.8,4.8,0,0,0,4.781-4.781v-9.953a4.8,4.8,0,0,0-4.781-4.781Zm-4.636,15.82a6.151,6.151,0,1,1,6.151-6.151A6.151,6.151,0,0,1,2404.933,3097.626Zm6.25-10.941a1.456,1.456,0,1,1,1.457-1.456A1.456,1.456,0,0,1,2411.182,3086.684Z" transform="translate(-2386.149 -3072.814)" fill="#fdc1cd"/>
    <path id="Path_15" data-name="Path 15" d="M2381.425,3050.115a18.75,18.75,0,1,0,18.75,18.75A18.749,18.749,0,0,0,2381.425,3050.115Zm11.169,23.727a6.518,6.518,0,0,1-6.5,6.5h-9.34a6.518,6.518,0,0,1-6.5-6.5v-9.953a6.517,6.517,0,0,1,6.5-6.5h9.34a6.518,6.518,0,0,1,6.5,6.5Z" transform="translate(-2362.676 -3050.115)" fill="#fdc1cd"/>
  </g>
</svg>
