<svg xmlns="http://www.w3.org/2000/svg" width="37.499" height="37.5" viewBox="0 0 37.499 37.5">
  <g id="tiktok" transform="translate(0 0)">
    <g id="Group_13" data-name="Group 13" transform="translate(0 0)">
      <path id="Path_12" data-name="Path 12" d="M2621.339,3087.184h0v0Z" transform="translate(-2595.667 -3076.665)" fill="#30b575"/>
      <path id="Path_13" data-name="Path 13" d="M2549.61,3050.115h0a18.749,18.749,0,0,0-18.75,18.75h0a18.75,18.75,0,0,0,18.75,18.75h0a18.75,18.75,0,0,0,18.749-18.75h0A18.749,18.749,0,0,0,2549.61,3050.115Zm11.042,13.721v2.7a8.014,8.014,0,0,1-6.106-1.93v9.025a8.131,8.131,0,0,1-6.247,7.752,7.67,7.67,0,0,1-7.23-2.018h0c-1.089-.761-4.121-5.456-1.394-9.973a7.8,7.8,0,0,1,7.957-3.933v1.526s-.131.007-.008,0h.008v3.053h0a4.161,4.161,0,0,0-1.144-.073h-.007a3.326,3.326,0,0,0-2.786,1.528,3.428,3.428,0,0,0-.623,2.531,3.855,3.855,0,0,0,1.508,2.524h0a3.671,3.671,0,0,0,5.68-3.076c0-.223-.022-17.354-.022-17.354h4.355a7.076,7.076,0,0,0,.224,1.751h0a6.451,6.451,0,0,0,1.3,2.378,3.243,3.243,0,0,0,.295.273c.036.03.072.058.11.085l0,0h0a5.935,5.935,0,0,0,4.13,1.613Z" transform="translate(-2530.86 -3050.115)" fill="#fdc1cd"/>
    </g>
  </g>
</svg>
