<svg xmlns="http://www.w3.org/2000/svg" width="37.499" height="37.5" viewBox="0 0 37.499 37.5">
  <g id="youtube" transform="translate(0)">
    <path id="Path_17" data-name="Path 17" d="M2717.792,3049.8a18.75,18.75,0,1,0,18.75,18.75A18.749,18.749,0,0,0,2717.792,3049.8Zm11.8,19.609c-.036,2.66-.279,5.332-1.368,6.32-.421.38-.82.62-2.418.768-2,.185-4.707.212-6.753.215q-1.268,0-2.535,0c-2.046,0-4.755-.03-6.754-.215-1.6-.149-2-.388-2.417-.768-1.1-1-1.336-3.707-1.369-6.389q-.009-.756,0-1.513c.03-2.7.262-5.453,1.37-6.456.421-.382.82-.621,2.417-.77,2-.186,4.707-.211,6.754-.215q1.267,0,2.535,0c2.046,0,4.754.03,6.753.215,1.6.148,2,.388,2.418.77,1.088.987,1.332,3.658,1.368,6.319Q2729.607,3068.551,2729.6,3069.411Z" transform="translate(-2699.043 -3049.802)" fill="#fdc1cd"/>
    <path id="Path_18" data-name="Path 18" d="M2756.963,3110.924l5.96-3.612-5.96-3.4Z" transform="translate(-2740.529 -3088.562)" fill="#fdc1cd"/>
  </g>
</svg>
